<svg height="38" viewBox="0 0 149 38" width="149" xmlns="http://www.w3.org/2000/svg" xmlns:xlink="http://www.w3.org/1999/xlink"><linearGradient id="a" x1="100%" x2="0%" y1="46.89443%" y2="53.10557%"><stop offset="0" stop-color="#ff2d66"/><stop offset="1" stop-color="#ff8000"/></linearGradient><path d="m9.82841412 11.0415285c3.30127758 0 6.00606258 2.5641118 6.00606258 5.7027685l-.0788467 21.7900258h-5.95464085v-21.7900258h-9.80098915v-5.7027685zm69.13862508 0c2.9139002 0 5.2789587 2.2653484 5.2789587 5.0527119v17.3581507c0 2.7225821-2.2510967 4.9448653-5.0667524 5.0516498l-.2122063.004017h-18.1213742c-2.9413252 0-5.3067265-2.2650201-5.3067265-5.0556668v-17.3581507c0-2.7873635 2.3654013-5.0527119 5.3067265-5.0527119zm33.5437908 0c2.913901 0 5.279644 2.2653484 5.279644 5.0527119v17.3581507c0 2.7225821-2.251749 4.9448653-5.067436 5.0516498l-.212208.004017h-18.1244592c-2.9104722 0-5.3032985-2.2650201-5.3032985-5.0556668v-17.3581507c0-2.7873635 2.3928263-5.0527119 5.3032985-5.0527119zm-65.6038925 0c1.0387198 0 1.9231742.2724984 2.6533633.8470433.726761.5712618 1.0901415 1.2443001 1.0901415 1.9895669 0 .2987633-.0788467.6500565-.2056871 1.0473132-.1302685.3972568-.2879619.7715318-.4422272 1.0965601-.1851184.34801-.3668086.7452668-.5999207 1.1950534l-7.8263931 16.0117456c-.2091152.4465035-.493649 1.046985-.8330327 1.7433334-.3633805.722285-.7541859 1.3198117-1.1689882 1.818845-.4422272.4954219-.9633012.8962901-1.5872186 1.1687885-.5545933.2451392-1.2310753.3891098-1.9957384.4180768l-.2908163.0054449c-1.1724163 0-2.0808675-.2232517-2.7562068-.6733667-.7027642-.4235216-1.1964132-.8959617-1.5357968-1.4179768-.3359556-.522015-.8844545-1.5430634-1.6626372-3.0631451l-7.7749715-15.8377406-.5450707-1.1950534c-.1816903-.374275-.3393837-.7977967-.4696522-1.1950534-.1302684-.4235217-.2091152-.7715317-.2091152-1.070295 0-.4497867.1816903-.8995732.521074-1.3723416.3393837-.4465035.8056077-.7945135 1.4055283-1.0932769.5964925-.2987634 1.247835-.4235216 1.9231742-.4235216 1.3781034 0 2.2865547.3217451 2.8076285.9455367.4936491.6467734 1.0661448 1.7170685 1.6900622 3.2371501l6.6059832 15.2894607 7.0962041-15.962499c.5724957-1.270565 1.1209946-2.1898368 1.6660653-2.7151351.5210739-.5449968 1.3506785-.7945134 2.4442481-.7945134zm97.7185015 0c1.011294 0 1.844327.2495166 2.519667.7452668.651342.4990333.990726 1.0965599.990726 1.818845 0 .4990333-.130269.9947834-.41823 1.4675518-.260195.4497866-.67534 1.0210483-1.247836 1.64484l-6.163755 7.2980335 6.945366 8.7137121c1.090484 1.3460767 1.635213 2.3901068 1.635213 3.0631451 0 .7222851-.335956 1.3198118-1.011295 1.8454382-.617062.4500851-1.358781.6974854-2.230312.7387475l-.265358.0061911c-.884454 0-1.638298-.2232517-2.238218-.6471017-.596836-.4497866-1.2996-1.1717434-2.105208-2.1172801l-5.563835-7.1706487-5.721529 7.1706487c-.805265.9977383-1.508371 1.6937584-2.080867 2.1405902-.515246.3811695-1.155447.5815051-1.922853.6177606l-.260515.006031c-.963645 0-1.793249-.2724985-2.496013-.7977966-.674996-.5216869-1.014724-1.1458067-1.014724-1.8418268 0-.6960202.521074-1.7167402 1.559795-3.0138985l6.969363-8.7137121-6.163756-7.2980335c-1.065801-1.1950534-1.611215-2.2423667-1.611215-3.1123918 0-.6960202.311958-1.2935469.963301-1.818845.624261-.4957502 1.453522-.7452668 2.496013-.7452668.908108 0 1.638297.2232516 2.234789.6467734.599922.4465034 1.27526 1.1458066 2.080868 2.1176083l4.967343 5.949002 4.833647-5.949002c.809378-.9980666 1.508371-1.6940867 2.108291-2.1438733.596494-.4235217 1.327025-.6205084 2.211137-.6205084zm-66.3340819 5.7257503h-16.7189311v16.0117457h16.7189311zm33.5441339 0h-16.6949343v16.0117457h16.6949343zm-99.6416756-15.33870737c2.0294459 0 3.6406613 1.54847421 3.6406613 3.49889279 0 1.86199507-1.5089427 3.37224339-3.4456089 3.46774121l-.1950524.00479457c-2.0020208 0-3.64066119-1.54847421-3.64066119-3.47253578 0-1.95041858 1.63864039-3.49889279 3.64066119-3.49889279z" fill="url(#a)" fill-rule="evenodd" transform="translate(0 -1)"/></svg>